<svg xmlns="http://www.w3.org/2000/svg" xmlns:xlink="http://www.w3.org/1999/xlink" width="512" zoomAndPan="magnify" viewBox="0 0 384 383.999986" height="512" preserveAspectRatio="xMidYMid meet" version="1.0"><defs><clipPath id="f74e036db3"><path d="M 81 81 L 303 81 L 303 303 L 81 303 Z M 81 81 " clip-rule="nonzero"/></clipPath><clipPath id="077dfcaaee"><path d="M 93.636719 70.46875 L 313.667969 93.648438 L 290.484375 313.683594 L 70.453125 290.5 Z M 93.636719 70.46875 " clip-rule="nonzero"/></clipPath><clipPath id="ecdaa753c0"><path d="M 93.636719 70.46875 L 313.667969 93.648438 L 290.484375 313.683594 L 70.453125 290.5 Z M 93.636719 70.46875 " clip-rule="nonzero"/></clipPath><clipPath id="a4315ee209"><path d="M 104 102 L 280 102 L 280 279 L 104 279 Z M 104 102 " clip-rule="nonzero"/></clipPath><clipPath id="0ada37c073"><path d="M 93.636719 70.46875 L 313.667969 93.648438 L 290.484375 313.683594 L 70.453125 290.5 Z M 93.636719 70.46875 " clip-rule="nonzero"/></clipPath><clipPath id="e72cdf6d3d"><path d="M 93.636719 70.46875 L 313.667969 93.648438 L 290.484375 313.683594 L 70.453125 290.5 Z M 93.636719 70.46875 " clip-rule="nonzero"/></clipPath><clipPath id="b67876f61a"><path d="M 103 102 L 281 102 L 281 279 L 103 279 Z M 103 102 " clip-rule="nonzero"/></clipPath><clipPath id="8dec138cc3"><path d="M 93.636719 70.46875 L 313.667969 93.648438 L 290.484375 313.683594 L 70.453125 290.5 Z M 93.636719 70.46875 " clip-rule="nonzero"/></clipPath><clipPath id="2293f00e94"><path d="M 93.636719 70.46875 L 313.667969 93.648438 L 290.484375 313.683594 L 70.453125 290.5 Z M 93.636719 70.46875 " clip-rule="nonzero"/></clipPath><clipPath id="fc3d824f8d"><path d="M 121 115 L 265 115 L 265 255 L 121 255 Z M 121 115 " clip-rule="nonzero"/></clipPath><clipPath id="8ac2ef34da"><path d="M 93.636719 70.46875 L 313.667969 93.648438 L 290.484375 313.683594 L 70.453125 290.5 Z M 93.636719 70.46875 " clip-rule="nonzero"/></clipPath><clipPath id="a793a24af5"><path d="M 93.636719 70.46875 L 313.667969 93.648438 L 290.484375 313.683594 L 70.453125 290.5 Z M 93.636719 70.46875 " clip-rule="nonzero"/></clipPath><clipPath id="4ff48dcc6d"><path d="M 121 115 L 266 115 L 266 255 L 121 255 Z M 121 115 " clip-rule="nonzero"/></clipPath><clipPath id="d831d38a20"><path d="M 93.636719 70.46875 L 313.667969 93.648438 L 290.484375 313.683594 L 70.453125 290.5 Z M 93.636719 70.46875 " clip-rule="nonzero"/></clipPath><clipPath id="537bd41532"><path d="M 93.636719 70.46875 L 313.667969 93.648438 L 290.484375 313.683594 L 70.453125 290.5 Z M 93.636719 70.46875 " clip-rule="nonzero"/></clipPath><clipPath id="691c38c692"><path d="M 158 160 L 225 160 L 225 227 L 158 227 Z M 158 160 " clip-rule="nonzero"/></clipPath><clipPath id="31a53ba85d"><path d="M 93.636719 70.46875 L 313.667969 93.648438 L 290.484375 313.683594 L 70.453125 290.5 Z M 93.636719 70.46875 " clip-rule="nonzero"/></clipPath><clipPath id="1768348de6"><path d="M 93.636719 70.46875 L 313.667969 93.648438 L 290.484375 313.683594 L 70.453125 290.5 Z M 93.636719 70.46875 " clip-rule="nonzero"/></clipPath><clipPath id="399a2f05bf"><path d="M 158 159 L 226 159 L 226 227 L 158 227 Z M 158 159 " clip-rule="nonzero"/></clipPath><clipPath id="96d916a5d8"><path d="M 93.636719 70.46875 L 313.667969 93.648438 L 290.484375 313.683594 L 70.453125 290.5 Z M 93.636719 70.46875 " clip-rule="nonzero"/></clipPath><clipPath id="d2bd951b83"><path d="M 93.636719 70.46875 L 313.667969 93.648438 L 290.484375 313.683594 L 70.453125 290.5 Z M 93.636719 70.46875 " clip-rule="nonzero"/></clipPath><clipPath id="15c0980f47"><path d="M 189 189 L 197 189 L 197 196 L 189 196 Z M 189 189 " clip-rule="nonzero"/></clipPath><clipPath id="618e8149c1"><path d="M 93.636719 70.46875 L 313.667969 93.648438 L 290.484375 313.683594 L 70.453125 290.5 Z M 93.636719 70.46875 " clip-rule="nonzero"/></clipPath><clipPath id="78ec5c9511"><path d="M 93.636719 70.46875 L 313.667969 93.648438 L 290.484375 313.683594 L 70.453125 290.5 Z M 93.636719 70.46875 " clip-rule="nonzero"/></clipPath><clipPath id="e6fe83b326"><path d="M 189 189 L 198 189 L 198 197 L 189 197 Z M 189 189 " clip-rule="nonzero"/></clipPath><clipPath id="1596a85f0b"><path d="M 93.636719 70.46875 L 313.667969 93.648438 L 290.484375 313.683594 L 70.453125 290.5 Z M 93.636719 70.46875 " clip-rule="nonzero"/></clipPath><clipPath id="fe3ef41542"><path d="M 93.636719 70.46875 L 313.667969 93.648438 L 290.484375 313.683594 L 70.453125 290.5 Z M 93.636719 70.46875 " clip-rule="nonzero"/></clipPath><clipPath id="24021a8fc3"><path d="M 165 171 L 192 171 L 192 197 L 165 197 Z M 165 171 " clip-rule="nonzero"/></clipPath><clipPath id="64c3c505a5"><path d="M 93.636719 70.46875 L 313.667969 93.648438 L 290.484375 313.683594 L 70.453125 290.5 Z M 93.636719 70.46875 " clip-rule="nonzero"/></clipPath><clipPath id="f68af95ea0"><path d="M 93.636719 70.46875 L 313.667969 93.648438 L 290.484375 313.683594 L 70.453125 290.5 Z M 93.636719 70.46875 " clip-rule="nonzero"/></clipPath><clipPath id="7b2cc18305"><path d="M 164 171 L 192 171 L 192 197 L 164 197 Z M 164 171 " clip-rule="nonzero"/></clipPath><clipPath id="f29c14dd3d"><path d="M 93.636719 70.46875 L 313.667969 93.648438 L 290.484375 313.683594 L 70.453125 290.5 Z M 93.636719 70.46875 " clip-rule="nonzero"/></clipPath><clipPath id="ac14572a30"><path d="M 93.636719 70.46875 L 313.667969 93.648438 L 290.484375 313.683594 L 70.453125 290.5 Z M 93.636719 70.46875 " clip-rule="nonzero"/></clipPath><clipPath id="8cbb553a2d"><path d="M 174 172 L 192 172 L 192 197 L 174 197 Z M 174 172 " clip-rule="nonzero"/></clipPath><clipPath id="f5f20fbf65"><path d="M 93.636719 70.46875 L 313.667969 93.648438 L 290.484375 313.683594 L 70.453125 290.5 Z M 93.636719 70.46875 " clip-rule="nonzero"/></clipPath><clipPath id="23d40566f0"><path d="M 93.636719 70.46875 L 313.667969 93.648438 L 290.484375 313.683594 L 70.453125 290.5 Z M 93.636719 70.46875 " clip-rule="nonzero"/></clipPath><clipPath id="b0f6b3bcdc"><path d="M 180 179 L 187 179 L 187 185 L 180 185 Z M 180 179 " clip-rule="nonzero"/></clipPath><clipPath id="f1231df8d6"><path d="M 93.636719 70.46875 L 313.667969 93.648438 L 290.484375 313.683594 L 70.453125 290.5 Z M 93.636719 70.46875 " clip-rule="nonzero"/></clipPath><clipPath id="56bca2824d"><path d="M 93.636719 70.46875 L 313.667969 93.648438 L 290.484375 313.683594 L 70.453125 290.5 Z M 93.636719 70.46875 " clip-rule="nonzero"/></clipPath><clipPath id="c56c4e231f"><path d="M 161 168 L 170 168 L 170 176 L 161 176 Z M 161 168 " clip-rule="nonzero"/></clipPath><clipPath id="98c18a3086"><path d="M 93.636719 70.46875 L 313.667969 93.648438 L 290.484375 313.683594 L 70.453125 290.5 Z M 93.636719 70.46875 " clip-rule="nonzero"/></clipPath><clipPath id="f77f59435a"><path d="M 93.636719 70.46875 L 313.667969 93.648438 L 290.484375 313.683594 L 70.453125 290.5 Z M 93.636719 70.46875 " clip-rule="nonzero"/></clipPath><clipPath id="b5dfad82c5"><path d="M 158 172 L 168 172 L 168 179 L 158 179 Z M 158 172 " clip-rule="nonzero"/></clipPath><clipPath id="aa9d1129bb"><path d="M 93.636719 70.46875 L 313.667969 93.648438 L 290.484375 313.683594 L 70.453125 290.5 Z M 93.636719 70.46875 " clip-rule="nonzero"/></clipPath><clipPath id="c7571e28fd"><path d="M 93.636719 70.46875 L 313.667969 93.648438 L 290.484375 313.683594 L 70.453125 290.5 Z M 93.636719 70.46875 " clip-rule="nonzero"/></clipPath><clipPath id="ba34035528"><path d="M 157 175 L 167 175 L 167 183 L 157 183 Z M 157 175 " clip-rule="nonzero"/></clipPath><clipPath id="67923b85b6"><path d="M 93.636719 70.46875 L 313.667969 93.648438 L 290.484375 313.683594 L 70.453125 290.5 Z M 93.636719 70.46875 " clip-rule="nonzero"/></clipPath><clipPath id="58000dc381"><path d="M 93.636719 70.46875 L 313.667969 93.648438 L 290.484375 313.683594 L 70.453125 290.5 Z M 93.636719 70.46875 " clip-rule="nonzero"/></clipPath><clipPath id="2388e0a98d"><path d="M 194 170 L 221 170 L 221 196 L 194 196 Z M 194 170 " clip-rule="nonzero"/></clipPath><clipPath id="3a9a778519"><path d="M 93.636719 70.46875 L 313.667969 93.648438 L 290.484375 313.683594 L 70.453125 290.5 Z M 93.636719 70.46875 " clip-rule="nonzero"/></clipPath><clipPath id="b7db7c0c5d"><path d="M 93.636719 70.46875 L 313.667969 93.648438 L 290.484375 313.683594 L 70.453125 290.5 Z M 93.636719 70.46875 " clip-rule="nonzero"/></clipPath><clipPath id="7a13c5f52f"><path d="M 193 170 L 221 170 L 221 197 L 193 197 Z M 193 170 " clip-rule="nonzero"/></clipPath><clipPath id="a989a69f24"><path d="M 93.636719 70.46875 L 313.667969 93.648438 L 290.484375 313.683594 L 70.453125 290.5 Z M 93.636719 70.46875 " clip-rule="nonzero"/></clipPath><clipPath id="a47f3946a5"><path d="M 93.636719 70.46875 L 313.667969 93.648438 L 290.484375 313.683594 L 70.453125 290.5 Z M 93.636719 70.46875 " clip-rule="nonzero"/></clipPath><clipPath id="fe87989e3c"><path d="M 203 171 L 221 171 L 221 196 L 203 196 Z M 203 171 " clip-rule="nonzero"/></clipPath><clipPath id="decbf27bd5"><path d="M 93.636719 70.46875 L 313.667969 93.648438 L 290.484375 313.683594 L 70.453125 290.5 Z M 93.636719 70.46875 " clip-rule="nonzero"/></clipPath><clipPath id="6fe3564696"><path d="M 93.636719 70.46875 L 313.667969 93.648438 L 290.484375 313.683594 L 70.453125 290.5 Z M 93.636719 70.46875 " clip-rule="nonzero"/></clipPath><clipPath id="da8cb825d2"><path d="M 209 178 L 216 178 L 216 184 L 209 184 Z M 209 178 " clip-rule="nonzero"/></clipPath><clipPath id="858d12c2d7"><path d="M 93.636719 70.46875 L 313.667969 93.648438 L 290.484375 313.683594 L 70.453125 290.5 Z M 93.636719 70.46875 " clip-rule="nonzero"/></clipPath><clipPath id="1e9342dd5f"><path d="M 93.636719 70.46875 L 313.667969 93.648438 L 290.484375 313.683594 L 70.453125 290.5 Z M 93.636719 70.46875 " clip-rule="nonzero"/></clipPath><clipPath id="c8ae8a17a7"><path d="M 215 167 L 224 167 L 224 175 L 215 175 Z M 215 167 " clip-rule="nonzero"/></clipPath><clipPath id="a91bfbce24"><path d="M 93.636719 70.46875 L 313.667969 93.648438 L 290.484375 313.683594 L 70.453125 290.5 Z M 93.636719 70.46875 " clip-rule="nonzero"/></clipPath><clipPath id="e8bf342713"><path d="M 93.636719 70.46875 L 313.667969 93.648438 L 290.484375 313.683594 L 70.453125 290.5 Z M 93.636719 70.46875 " clip-rule="nonzero"/></clipPath><clipPath id="7047a2a553"><path d="M 217 170 L 226 170 L 226 178 L 217 178 Z M 217 170 " clip-rule="nonzero"/></clipPath><clipPath id="9dc24f4ab0"><path d="M 93.636719 70.46875 L 313.667969 93.648438 L 290.484375 313.683594 L 70.453125 290.5 Z M 93.636719 70.46875 " clip-rule="nonzero"/></clipPath><clipPath id="9e1b7ac06d"><path d="M 93.636719 70.46875 L 313.667969 93.648438 L 290.484375 313.683594 L 70.453125 290.5 Z M 93.636719 70.46875 " clip-rule="nonzero"/></clipPath><clipPath id="01b701e8d4"><path d="M 219 173 L 228 173 L 228 181 L 219 181 Z M 219 173 " clip-rule="nonzero"/></clipPath><clipPath id="68a88ae1d2"><path d="M 93.636719 70.46875 L 313.667969 93.648438 L 290.484375 313.683594 L 70.453125 290.5 Z M 93.636719 70.46875 " clip-rule="nonzero"/></clipPath><clipPath id="e15962768c"><path d="M 93.636719 70.46875 L 313.667969 93.648438 L 290.484375 313.683594 L 70.453125 290.5 Z M 93.636719 70.46875 " clip-rule="nonzero"/></clipPath><clipPath id="5432f2c85e"><path d="M 184 196 L 203 196 L 203 204 L 184 204 Z M 184 196 " clip-rule="nonzero"/></clipPath><clipPath id="687e7d3885"><path d="M 93.636719 70.46875 L 313.667969 93.648438 L 290.484375 313.683594 L 70.453125 290.5 Z M 93.636719 70.46875 " clip-rule="nonzero"/></clipPath><clipPath id="7f32549d22"><path d="M 93.636719 70.46875 L 313.667969 93.648438 L 290.484375 313.683594 L 70.453125 290.5 Z M 93.636719 70.46875 " clip-rule="nonzero"/></clipPath><clipPath id="f7b99f4eb1"><path d="M 173 198 L 175 198 L 175 200 L 173 200 Z M 173 198 " clip-rule="nonzero"/></clipPath><clipPath id="f360f9ad73"><path d="M 93.636719 70.46875 L 313.667969 93.648438 L 290.484375 313.683594 L 70.453125 290.5 Z M 93.636719 70.46875 " clip-rule="nonzero"/></clipPath><clipPath id="a545729494"><path d="M 93.636719 70.46875 L 313.667969 93.648438 L 290.484375 313.683594 L 70.453125 290.5 Z M 93.636719 70.46875 " clip-rule="nonzero"/></clipPath><clipPath id="abd5e79398"><path d="M 175 199 L 177 199 L 177 202 L 175 202 Z M 175 199 " clip-rule="nonzero"/></clipPath><clipPath id="d0c83008be"><path d="M 93.636719 70.46875 L 313.667969 93.648438 L 290.484375 313.683594 L 70.453125 290.5 Z M 93.636719 70.46875 " clip-rule="nonzero"/></clipPath><clipPath id="4d47cc100f"><path d="M 93.636719 70.46875 L 313.667969 93.648438 L 290.484375 313.683594 L 70.453125 290.5 Z M 93.636719 70.46875 " clip-rule="nonzero"/></clipPath><clipPath id="d1d441fa4c"><path d="M 176 197 L 178 197 L 178 200 L 176 200 Z M 176 197 " clip-rule="nonzero"/></clipPath><clipPath id="cf37bff2a8"><path d="M 93.636719 70.46875 L 313.667969 93.648438 L 290.484375 313.683594 L 70.453125 290.5 Z M 93.636719 70.46875 " clip-rule="nonzero"/></clipPath><clipPath id="0adf006f4e"><path d="M 93.636719 70.46875 L 313.667969 93.648438 L 290.484375 313.683594 L 70.453125 290.5 Z M 93.636719 70.46875 " clip-rule="nonzero"/></clipPath><clipPath id="bdbadfd6d6"><path d="M 209 196 L 211 196 L 211 199 L 209 199 Z M 209 196 " clip-rule="nonzero"/></clipPath><clipPath id="52b072928c"><path d="M 93.636719 70.46875 L 313.667969 93.648438 L 290.484375 313.683594 L 70.453125 290.5 Z M 93.636719 70.46875 " clip-rule="nonzero"/></clipPath><clipPath id="72a550145d"><path d="M 93.636719 70.46875 L 313.667969 93.648438 L 290.484375 313.683594 L 70.453125 290.5 Z M 93.636719 70.46875 " clip-rule="nonzero"/></clipPath><clipPath id="c64ad73d8c"><path d="M 211 198 L 213 198 L 213 200 L 211 200 Z M 211 198 " clip-rule="nonzero"/></clipPath><clipPath id="ba0daccf7d"><path d="M 93.636719 70.46875 L 313.667969 93.648438 L 290.484375 313.683594 L 70.453125 290.5 Z M 93.636719 70.46875 " clip-rule="nonzero"/></clipPath><clipPath id="c7cec875e0"><path d="M 93.636719 70.46875 L 313.667969 93.648438 L 290.484375 313.683594 L 70.453125 290.5 Z M 93.636719 70.46875 " clip-rule="nonzero"/></clipPath><clipPath id="7db5478d2e"><path d="M 212 196 L 214 196 L 214 198 L 212 198 Z M 212 196 " clip-rule="nonzero"/></clipPath><clipPath id="d538392d21"><path d="M 93.636719 70.46875 L 313.667969 93.648438 L 290.484375 313.683594 L 70.453125 290.5 Z M 93.636719 70.46875 " clip-rule="nonzero"/></clipPath><clipPath id="4cbc38c456"><path d="M 93.636719 70.46875 L 313.667969 93.648438 L 290.484375 313.683594 L 70.453125 290.5 Z M 93.636719 70.46875 " clip-rule="nonzero"/></clipPath><clipPath id="8ca2069822"><path d="M 255 212 L 283 212 L 283 243 L 255 243 Z M 255 212 " clip-rule="nonzero"/></clipPath><clipPath id="e250477af3"><path d="M 93.636719 70.46875 L 313.667969 93.648438 L 290.484375 313.683594 L 70.453125 290.5 Z M 93.636719 70.46875 " clip-rule="nonzero"/></clipPath><clipPath id="520d229536"><path d="M 93.636719 70.46875 L 313.667969 93.648438 L 290.484375 313.683594 L 70.453125 290.5 Z M 93.636719 70.46875 " clip-rule="nonzero"/></clipPath><clipPath id="8e7d61de61"><path d="M 254 211 L 284 211 L 284 245 L 254 245 Z M 254 211 " clip-rule="nonzero"/></clipPath><clipPath id="8a58a8055a"><path d="M 93.636719 70.46875 L 313.667969 93.648438 L 290.484375 313.683594 L 70.453125 290.5 Z M 93.636719 70.46875 " clip-rule="nonzero"/></clipPath><clipPath id="997f5eb59d"><path d="M 93.636719 70.46875 L 313.667969 93.648438 L 290.484375 313.683594 L 70.453125 290.5 Z M 93.636719 70.46875 " clip-rule="nonzero"/></clipPath><clipPath id="2bddfe83d3"><path d="M 127 104 L 158 104 L 158 133 L 127 133 Z M 127 104 " clip-rule="nonzero"/></clipPath><clipPath id="1acae8e549"><path d="M 93.636719 70.46875 L 313.667969 93.648438 L 290.484375 313.683594 L 70.453125 290.5 Z M 93.636719 70.46875 " clip-rule="nonzero"/></clipPath><clipPath id="d991f5cb88"><path d="M 93.636719 70.46875 L 313.667969 93.648438 L 290.484375 313.683594 L 70.453125 290.5 Z M 93.636719 70.46875 " clip-rule="nonzero"/></clipPath><clipPath id="1fd08d6aa6"><path d="M 126 103 L 160 103 L 160 134 L 126 134 Z M 126 103 " clip-rule="nonzero"/></clipPath><clipPath id="53a0def92b"><path d="M 93.636719 70.46875 L 313.667969 93.648438 L 290.484375 313.683594 L 70.453125 290.5 Z M 93.636719 70.46875 " clip-rule="nonzero"/></clipPath><clipPath id="d741e22867"><path d="M 93.636719 70.46875 L 313.667969 93.648438 L 290.484375 313.683594 L 70.453125 290.5 Z M 93.636719 70.46875 " clip-rule="nonzero"/></clipPath><clipPath id="3b86a8c755"><path d="M 274 174 L 284 174 L 284 185 L 274 185 Z M 274 174 " clip-rule="nonzero"/></clipPath><clipPath id="40922ccb65"><path d="M 93.636719 70.46875 L 313.667969 93.648438 L 290.484375 313.683594 L 70.453125 290.5 Z M 93.636719 70.46875 " clip-rule="nonzero"/></clipPath><clipPath id="e7b3f1551e"><path d="M 93.636719 70.46875 L 313.667969 93.648438 L 290.484375 313.683594 L 70.453125 290.5 Z M 93.636719 70.46875 " clip-rule="nonzero"/></clipPath><clipPath id="77b058e0ef"><path d="M 273 174 L 285 174 L 285 186 L 273 186 Z M 273 174 " clip-rule="nonzero"/></clipPath><clipPath id="100f45a2ce"><path d="M 93.636719 70.46875 L 313.667969 93.648438 L 290.484375 313.683594 L 70.453125 290.5 Z M 93.636719 70.46875 " clip-rule="nonzero"/></clipPath><clipPath id="b835e1a05e"><path d="M 93.636719 70.46875 L 313.667969 93.648438 L 290.484375 313.683594 L 70.453125 290.5 Z M 93.636719 70.46875 " clip-rule="nonzero"/></clipPath><clipPath id="daa13f1ff5"><path d="M 102 158 L 113 158 L 113 169 L 102 169 Z M 102 158 " clip-rule="nonzero"/></clipPath><clipPath id="1addf1e2a7"><path d="M 93.636719 70.46875 L 313.667969 93.648438 L 290.484375 313.683594 L 70.453125 290.5 Z M 93.636719 70.46875 " clip-rule="nonzero"/></clipPath><clipPath id="43cd88f5ad"><path d="M 93.636719 70.46875 L 313.667969 93.648438 L 290.484375 313.683594 L 70.453125 290.5 Z M 93.636719 70.46875 " clip-rule="nonzero"/></clipPath><clipPath id="3616c3c383"><path d="M 101 158 L 113 158 L 113 169 L 101 169 Z M 101 158 " clip-rule="nonzero"/></clipPath><clipPath id="4a3ea833b3"><path d="M 93.636719 70.46875 L 313.667969 93.648438 L 290.484375 313.683594 L 70.453125 290.5 Z M 93.636719 70.46875 " clip-rule="nonzero"/></clipPath><clipPath id="05a25e358b"><path d="M 93.636719 70.46875 L 313.667969 93.648438 L 290.484375 313.683594 L 70.453125 290.5 Z M 93.636719 70.46875 " clip-rule="nonzero"/></clipPath><clipPath id="18c86a54d8"><path d="M 119 241 L 130 241 L 130 252 L 119 252 Z M 119 241 " clip-rule="nonzero"/></clipPath><clipPath id="6ca633b724"><path d="M 93.636719 70.46875 L 313.667969 93.648438 L 290.484375 313.683594 L 70.453125 290.5 Z M 93.636719 70.46875 " clip-rule="nonzero"/></clipPath><clipPath id="d3ac40e8f6"><path d="M 93.636719 70.46875 L 313.667969 93.648438 L 290.484375 313.683594 L 70.453125 290.5 Z M 93.636719 70.46875 " clip-rule="nonzero"/></clipPath></defs><g clip-path="url(#f74e036db3)"><g clip-path="url(#077dfcaaee)"><g clip-path="url(#ecdaa753c0)"><path fill="#4e89ec" d="M 301.488281 203.535156 C 301.300781 205.324219 301.066406 207.113281 300.789062 208.890625 C 300.515625 210.671875 300.195312 212.445312 299.832031 214.210938 C 299.46875 215.976562 299.058594 217.730469 298.609375 219.472656 C 298.160156 221.21875 297.667969 222.953125 297.132812 224.671875 C 296.597656 226.394531 296.023438 228.101562 295.402344 229.792969 C 294.785156 231.484375 294.125 233.160156 293.425781 234.820312 C 292.722656 236.480469 291.984375 238.121094 291.203125 239.746094 C 290.421875 241.371094 289.597656 242.972656 288.738281 244.554688 C 287.878906 246.140625 286.980469 247.699219 286.042969 249.238281 C 285.105469 250.777344 284.132812 252.292969 283.121094 253.785156 C 282.109375 255.277344 281.0625 256.742188 279.980469 258.183594 C 278.898438 259.621094 277.777344 261.035156 276.625 262.417969 C 275.472656 263.804688 274.289062 265.160156 273.070312 266.488281 C 271.851562 267.8125 270.597656 269.109375 269.316406 270.375 C 268.035156 271.640625 266.722656 272.875 265.378906 274.074219 C 264.035156 275.277344 262.664062 276.441406 261.261719 277.578125 C 259.859375 278.710938 258.433594 279.808594 256.980469 280.871094 C 255.523438 281.9375 254.046875 282.964844 252.539062 283.953125 C 251.035156 284.945312 249.507812 285.898438 247.953125 286.8125 C 246.402344 287.730469 244.828125 288.605469 243.234375 289.445312 C 241.640625 290.285156 240.027344 291.082031 238.390625 291.84375 C 236.757812 292.601562 235.105469 293.320312 233.4375 294 C 231.769531 294.675781 230.082031 295.3125 228.382812 295.910156 C 226.679688 296.503906 224.96875 297.058594 223.238281 297.570312 C 221.511719 298.082031 219.773438 298.546875 218.023438 298.976562 C 216.269531 299.402344 214.511719 299.785156 212.742188 300.121094 C 210.972656 300.460938 209.195312 300.757812 207.410156 301.011719 C 205.625 301.261719 203.835938 301.472656 202.042969 301.636719 C 200.25 301.800781 198.453125 301.921875 196.652344 301.996094 C 194.851562 302.074219 193.050781 302.105469 191.25 302.09375 C 189.445312 302.078125 187.644531 302.023438 185.847656 301.921875 C 184.046875 301.820312 182.253906 301.675781 180.460938 301.488281 C 178.667969 301.300781 176.882812 301.066406 175.101562 300.789062 C 173.320312 300.515625 171.550781 300.195312 169.785156 299.832031 C 168.019531 299.46875 166.265625 299.058594 164.519531 298.609375 C 162.773438 298.160156 161.042969 297.667969 159.320312 297.132812 C 157.601562 296.597656 155.894531 296.023438 154.203125 295.402344 C 152.511719 294.785156 150.832031 294.125 149.175781 293.425781 C 147.515625 292.722656 145.871094 291.984375 144.25 291.203125 C 142.625 290.421875 141.023438 289.597656 139.4375 288.738281 C 137.855469 287.878906 136.292969 286.980469 134.753906 286.042969 C 133.214844 285.105469 131.699219 284.132812 130.210938 283.121094 C 128.71875 282.109375 127.253906 281.0625 125.8125 279.980469 C 124.371094 278.898438 122.960938 277.777344 121.574219 276.625 C 120.191406 275.472656 118.832031 274.289062 117.507812 273.070312 C 116.179688 271.851562 114.882812 270.597656 113.617188 269.316406 C 112.351562 268.035156 111.121094 266.722656 109.917969 265.378906 C 108.71875 264.035156 107.550781 262.664062 106.417969 261.261719 C 105.285156 259.859375 104.183594 258.433594 103.121094 256.980469 C 102.058594 255.523438 101.03125 254.046875 100.039062 252.539062 C 99.050781 251.035156 98.097656 249.507812 97.179688 247.953125 C 96.265625 246.402344 95.386719 244.828125 94.550781 243.234375 C 93.710938 241.640625 92.910156 240.027344 92.152344 238.390625 C 91.394531 236.757812 90.675781 235.105469 89.996094 233.4375 C 89.316406 231.765625 88.679688 230.082031 88.085938 228.382812 C 87.488281 226.679688 86.9375 224.96875 86.425781 223.238281 C 85.914062 221.511719 85.445312 219.773438 85.019531 218.023438 C 84.59375 216.269531 84.210938 214.511719 83.871094 212.742188 C 83.53125 210.972656 83.234375 209.195312 82.984375 207.410156 C 82.730469 205.625 82.523438 203.835938 82.359375 202.042969 C 82.195312 200.25 82.074219 198.453125 81.996094 196.652344 C 81.921875 194.851562 81.890625 193.050781 81.902344 191.25 C 81.914062 189.445312 81.972656 187.644531 82.070312 185.847656 C 82.171875 184.046875 82.316406 182.253906 82.503906 180.460938 C 82.695312 178.667969 82.925781 176.882812 83.203125 175.101562 C 83.480469 173.320312 83.800781 171.550781 84.164062 169.785156 C 84.527344 168.019531 84.933594 166.265625 85.382812 164.519531 C 85.832031 162.773438 86.324219 161.042969 86.859375 159.320312 C 87.394531 157.601562 87.972656 155.894531 88.589844 154.203125 C 89.207031 152.511719 89.867188 150.832031 90.570312 149.175781 C 91.269531 147.515625 92.011719 145.871094 92.792969 144.25 C 93.574219 142.625 94.394531 141.023438 95.253906 139.4375 C 96.113281 137.855469 97.011719 136.292969 97.949219 134.753906 C 98.886719 133.214844 99.859375 131.699219 100.871094 130.210938 C 101.882812 128.71875 102.929688 127.253906 104.015625 125.8125 C 105.097656 124.371094 106.214844 122.960938 107.367188 121.574219 C 108.519531 120.191406 109.707031 118.832031 110.925781 117.507812 C 112.144531 116.179688 113.394531 114.882812 114.675781 113.617188 C 115.960938 112.351562 117.273438 111.121094 118.617188 109.917969 C 119.960938 108.71875 121.332031 107.550781 122.730469 106.417969 C 124.132812 105.285156 125.558594 104.183594 127.015625 103.121094 C 128.46875 102.058594 129.949219 101.03125 131.453125 100.039062 C 132.960938 99.050781 134.488281 98.097656 136.039062 97.179688 C 137.589844 96.265625 139.164062 95.386719 140.757812 94.550781 C 142.355469 93.710938 143.96875 92.910156 145.601562 92.152344 C 147.234375 91.394531 148.886719 90.675781 150.558594 89.996094 C 152.226562 89.316406 153.910156 88.679688 155.613281 88.085938 C 157.3125 87.488281 159.027344 86.9375 160.753906 86.425781 C 162.484375 85.914062 164.222656 85.445312 165.972656 85.019531 C 167.722656 84.59375 169.484375 84.210938 171.253906 83.871094 C 173.023438 83.53125 174.800781 83.234375 176.582031 82.984375 C 178.367188 82.730469 180.15625 82.523438 181.949219 82.359375 C 183.746094 82.195312 185.542969 82.074219 187.34375 81.996094 C 189.144531 81.921875 190.945312 81.890625 192.746094 81.902344 C 194.546875 81.914062 196.347656 81.972656 198.148438 82.070312 C 199.945312 82.171875 201.742188 82.316406 203.535156 82.503906 C 205.324219 82.695312 207.113281 82.925781 208.890625 83.203125 C 210.671875 83.480469 212.445312 83.800781 214.210938 84.164062 C 215.976562 84.527344 217.730469 84.933594 219.472656 85.382812 C 221.21875 85.832031 222.953125 86.324219 224.671875 86.859375 C 226.394531 87.394531 228.101562 87.972656 229.792969 88.589844 C 231.484375 89.207031 233.160156 89.867188 234.820312 90.570312 C 236.480469 91.269531 238.121094 92.011719 239.746094 92.792969 C 241.371094 93.574219 242.972656 94.394531 244.554688 95.253906 C 246.140625 96.113281 247.699219 97.011719 249.238281 97.949219 C 250.777344 98.886719 252.292969 99.859375 253.785156 100.871094 C 255.277344 101.882812 256.742188 102.929688 258.183594 104.015625 C 259.621094 105.097656 261.035156 106.214844 262.417969 107.367188 C 263.804688 108.519531 265.160156 109.707031 266.488281 110.925781 C 267.8125 112.144531 269.109375 113.394531 270.375 114.675781 C 271.640625 115.960938 272.875 117.273438 274.074219 118.617188 C 275.277344 119.960938 276.441406 121.332031 277.578125 122.730469 C 278.710938 124.132812 279.808594 125.558594 280.871094 127.015625 C 281.9375 128.46875 282.964844 129.949219 283.953125 131.453125 C 284.945312 132.960938 285.898438 134.488281 286.8125 136.039062 C 287.730469 137.589844 288.605469 139.164062 289.445312 140.757812 C 290.285156 142.355469 291.082031 143.96875 291.84375 145.601562 C 292.601562 147.234375 293.320312 148.886719 294 150.558594 C 294.675781 152.226562 295.3125 153.910156 295.910156 155.613281 C 296.503906 157.3125 297.058594 159.027344 297.570312 160.753906 C 298.082031 162.484375 298.546875 164.222656 298.976562 165.972656 C 299.402344 167.722656 299.785156 169.484375 300.121094 171.253906 C 300.460938 173.023438 300.757812 174.800781 301.011719 176.582031 C 301.261719 178.367188 301.472656 180.15625 301.636719 181.949219 C 301.800781 183.746094 301.921875 185.542969 301.996094 187.34375 C 302.074219 189.144531 302.105469 190.945312 302.09375 192.746094 C 302.078125 194.546875 302.023438 196.347656 301.921875 198.148438 C 301.820312 199.945312 301.675781 201.742188 301.488281 203.535156 Z M 301.488281 203.535156 " fill-opacity="1" fill-rule="nonzero"/><path fill="#2151a3" d="M 180.414062 301.941406 C 151.046875 298.847656 124.640625 284.503906 106.0625 261.546875 C 87.484375 238.59375 78.957031 209.78125 82.050781 180.414062 C 85.144531 151.046875 99.492188 124.640625 122.445312 106.0625 C 145.402344 87.484375 174.214844 78.957031 203.582031 82.050781 C 232.949219 85.144531 259.355469 99.492188 277.933594 122.445312 C 296.511719 145.402344 305.042969 174.214844 301.949219 203.582031 C 298.855469 232.949219 284.507812 259.355469 261.550781 277.933594 C 238.597656 296.511719 209.78125 305.039062 180.414062 301.941406 Z M 203.484375 82.960938 C 174.359375 79.890625 145.78125 88.347656 123.019531 106.773438 C 100.257812 125.195312 86.027344 151.386719 82.960938 180.507812 C 79.890625 209.636719 88.347656 238.210938 106.773438 260.972656 C 125.195312 283.738281 151.382812 297.964844 180.507812 301.035156 C 209.636719 304.101562 238.210938 295.644531 260.972656 277.222656 C 283.738281 258.796875 297.964844 232.613281 301.035156 203.484375 C 304.101562 174.359375 295.644531 145.78125 277.222656 123.019531 C 258.796875 100.257812 232.613281 86.027344 203.484375 82.960938 Z M 203.484375 82.960938 " fill-opacity="1" fill-rule="nonzero"/></g></g></g><g clip-path="url(#a4315ee209)"><g clip-path="url(#0ada37c073)"><g clip-path="url(#e72cdf6d3d)"><path fill="#fe8be8" d="M 279.464844 199.796875 C 275.910156 233.539062 252.0625 263.171875 219.511719 274.046875 C 215.921875 275.25 174.910156 288.15625 139.046875 261.175781 C 113.59375 242.03125 101.171875 210.640625 104.828125 181.398438 C 110.210938 138.351562 150.6875 97.945312 201.34375 103.28125 C 249.570312 108.363281 284.546875 151.574219 279.464844 199.796875 Z M 279.464844 199.796875 " fill-opacity="1" fill-rule="nonzero"/></g></g></g><g clip-path="url(#b67876f61a)"><g clip-path="url(#8dec138cc3)"><g clip-path="url(#2293f00e94)"><path fill="#2151a3" d="M 181.335938 278.148438 C 168.109375 276.753906 153.054688 272.289062 138.773438 261.542969 C 126.402344 252.230469 116.660156 239.683594 110.601562 225.25 C 104.695312 211.179688 102.542969 195.992188 104.375 181.339844 C 107.078125 159.753906 118.535156 138.796875 135.808594 123.847656 C 154.371094 107.792969 177.660156 100.324219 201.390625 102.828125 C 249.789062 107.925781 285.015625 151.449219 279.914062 199.84375 C 278.160156 216.5 271.523438 232.386719 260.710938 245.78125 C 249.890625 259.195312 235.691406 269.121094 219.652344 274.476562 C 216.945312 275.386719 201.210938 280.242188 181.335938 278.148438 Z M 201.296875 103.730469 C 177.820312 101.257812 154.777344 108.648438 136.410156 124.539062 C 119.296875 139.34375 107.953125 160.085938 105.28125 181.449219 C 103.46875 195.945312 105.601562 210.964844 111.441406 224.890625 C 117.433594 239.175781 127.074219 251.59375 139.320312 260.808594 C 174.703125 287.433594 214.898438 275.105469 219.367188 273.613281 C 235.238281 268.308594 249.292969 258.488281 260.003906 245.210938 C 270.699219 231.949219 277.273438 216.230469 279.011719 199.75 C 284.058594 151.851562 249.195312 108.777344 201.296875 103.730469 Z M 201.296875 103.730469 " fill-opacity="1" fill-rule="nonzero"/></g></g></g><g clip-path="url(#fc3d824f8d)"><g clip-path="url(#8ac2ef34da)"><g clip-path="url(#a793a24af5)"><path fill="#ffffff" d="M 264.734375 180.019531 C 264.632812 177.40625 264.121094 164.027344 253.675781 156.765625 C 243.988281 150.03125 229.46875 151.125 218.371094 160.027344 C 225.863281 148.222656 225.492188 133.855469 217.90625 124.78125 C 209.554688 114.792969 195.988281 115.453125 193.867188 115.5625 C 191.292969 115.691406 180.042969 116.242188 172.382812 125.425781 C 165.71875 133.421875 164.292969 144.925781 168.382812 155.316406 C 158.605469 145.832031 144.878906 143.433594 135.015625 148.9375 C 123.9375 155.113281 122.445312 168.617188 122.15625 171.246094 C 121.765625 174.789062 120.5625 185.65625 128.554688 194.007812 C 136.773438 202.601562 148.242188 201.761719 149.835938 201.617188 C 148.683594 202.492188 137.953125 210.921875 138.347656 224.738281 C 138.691406 236.628906 147.027344 243.78125 149.273438 245.710938 C 150.53125 246.792969 161.371094 255.84375 173.917969 253.164062 C 182.089844 251.421875 189.242188 245.078125 193.296875 236.183594 C 197.242188 245.171875 204.324219 251.648438 212.5 253.5 C 225.003906 256.335938 235.96875 247.433594 237.242188 246.367188 C 240.117188 243.957031 248.523438 236.980469 248.433594 225.539062 C 248.339844 213.394531 238.757812 206.140625 237.585938 205.285156 C 239.171875 205.691406 248.753906 207.980469 256.5625 202.207031 C 265.339844 195.714844 264.894531 184.210938 264.734375 180.019531 Z M 264.734375 180.019531 " fill-opacity="1" fill-rule="nonzero"/></g></g></g><g clip-path="url(#4ff48dcc6d)"><g clip-path="url(#d831d38a20)"><g clip-path="url(#537bd41532)"><path fill="#2151a3" d="M 166.582031 253.984375 C 157.570312 253.035156 150.5625 247.421875 148.972656 246.054688 C 141.847656 239.917969 138.125 232.753906 137.890625 224.75 C 137.546875 212.855469 145.394531 204.824219 148.464844 202.148438 C 144.597656 202.246094 135.21875 201.644531 128.222656 194.324219 C 120.085938 185.816406 121.304688 174.808594 121.703125 171.191406 C 122.378906 165.082031 124.972656 154.011719 134.789062 148.535156 C 144.507812 143.117188 157.636719 145.277344 167.316406 153.714844 C 163.941406 143.546875 165.6875 132.738281 172.027344 125.132812 C 175.582031 120.871094 182.25 115.671875 193.84375 115.105469 C 198.628906 114.867188 210.585938 115.3125 218.253906 124.488281 C 225.589844 133.261719 226.183594 146.871094 219.929688 158.277344 C 230.769531 150.644531 244.464844 149.800781 253.9375 156.386719 C 260.792969 161.15625 264.789062 169.542969 265.191406 180 C 265.359375 184.359375 265.804688 195.941406 256.832031 202.570312 C 250.574219 207.195312 243.207031 206.785156 239.363281 206.125 C 242.554688 208.894531 248.8125 215.585938 248.890625 225.535156 C 248.984375 237.109375 240.414062 244.300781 237.597656 246.664062 L 237.539062 246.71875 C 235.511719 248.417969 224.773438 256.757812 212.402344 253.949219 C 204.464844 252.15625 197.378906 245.953125 193.292969 237.273438 C 189.09375 245.84375 181.945312 251.921875 174.019531 253.617188 C 171.441406 254.164062 168.941406 254.230469 166.582031 253.984375 Z M 149.882812 201.160156 C 150.050781 201.179688 150.199219 201.289062 150.261719 201.449219 C 150.335938 201.640625 150.273438 201.855469 150.109375 201.980469 C 148.910156 202.886719 138.414062 211.253906 138.804688 224.726562 C 139.027344 232.464844 142.644531 239.40625 149.554688 245.347656 C 151.515625 247.039062 161.835938 255.277344 173.824219 252.71875 C 181.746094 251.027344 188.871094 244.769531 192.886719 235.992188 C 192.957031 235.828125 193.125 235.722656 193.304688 235.722656 C 193.488281 235.730469 193.648438 235.832031 193.722656 235.996094 C 197.617188 244.882812 204.675781 251.257812 212.605469 253.050781 C 224.558594 255.765625 234.988281 247.664062 236.953125 246.011719 L 237.015625 245.960938 C 240.039062 243.425781 248.066406 236.6875 247.980469 225.539062 C 247.882812 213.964844 239.082031 206.941406 237.320312 205.648438 C 237.144531 205.519531 237.082031 205.28125 237.175781 205.085938 C 237.269531 204.890625 237.492188 204.78125 237.703125 204.839844 C 240.238281 205.488281 249.0625 207.179688 256.296875 201.832031 C 264.875 195.488281 264.445312 184.257812 264.28125 180.03125 L 264.738281 180.015625 L 264.28125 180.03125 C 264.058594 174.144531 262.34375 163.34375 253.421875 157.136719 C 243.734375 150.398438 229.441406 151.734375 218.660156 160.382812 C 218.484375 160.519531 218.238281 160.519531 218.070312 160.367188 C 217.902344 160.214844 217.867188 159.96875 217.988281 159.777344 C 225.246094 148.332031 225.074219 134.058594 217.558594 125.070312 C 210.152344 116.210938 198.542969 115.785156 193.894531 116.015625 C 182.632812 116.570312 176.175781 121.597656 172.738281 125.71875 C 166.242188 133.515625 164.734375 144.785156 168.816406 155.148438 C 168.894531 155.351562 168.820312 155.578125 168.644531 155.695312 C 168.464844 155.816406 168.222656 155.796875 168.070312 155.644531 C 158.582031 146.445312 145.078125 143.851562 135.242188 149.335938 C 125.789062 154.609375 123.273438 165.359375 122.621094 171.292969 C 122.230469 174.804688 121.050781 185.492188 128.890625 193.691406 C 136.734375 201.886719 147.683594 201.347656 149.800781 201.15625 C 149.824219 201.160156 149.851562 201.15625 149.882812 201.160156 Z M 149.882812 201.160156 " fill-opacity="1" fill-rule="nonzero"/></g></g></g><g clip-path="url(#691c38c692)"><g clip-path="url(#31a53ba85d)"><g clip-path="url(#1768348de6)"><path fill="#f7bf3e" d="M 224.65625 196.609375 C 224.542969 197.6875 224.375 198.757812 224.15625 199.820312 C 223.9375 200.882812 223.667969 201.929688 223.347656 202.964844 C 223.027344 204 222.652344 205.015625 222.234375 206.015625 C 221.8125 207.015625 221.339844 207.988281 220.824219 208.941406 C 220.304688 209.894531 219.742188 210.820312 219.136719 211.714844 C 218.527344 212.613281 217.875 213.476562 217.183594 214.3125 C 216.488281 215.144531 215.757812 215.941406 214.984375 216.703125 C 214.214844 217.464844 213.40625 218.1875 212.5625 218.867188 C 211.722656 219.550781 210.847656 220.1875 209.941406 220.785156 C 209.039062 221.382812 208.105469 221.929688 207.144531 222.433594 C 206.1875 222.941406 205.203125 223.394531 204.199219 223.804688 C 203.195312 224.210938 202.175781 224.570312 201.132812 224.878906 C 200.09375 225.183594 199.042969 225.441406 197.980469 225.644531 C 196.914062 225.847656 195.84375 226 194.761719 226.101562 C 193.683594 226.199219 192.601562 226.246094 191.519531 226.238281 C 190.433594 226.230469 189.351562 226.167969 188.273438 226.054688 C 187.199219 225.941406 186.128906 225.777344 185.066406 225.558594 C 184.003906 225.339844 182.957031 225.070312 181.921875 224.746094 C 180.886719 224.425781 179.867188 224.054688 178.871094 223.632812 C 177.871094 223.210938 176.894531 222.742188 175.945312 222.222656 C 174.992188 221.707031 174.066406 221.144531 173.167969 220.535156 C 172.273438 219.925781 171.40625 219.277344 170.574219 218.582031 C 169.742188 217.890625 168.945312 217.15625 168.183594 216.386719 C 167.421875 215.613281 166.699219 214.804688 166.019531 213.964844 C 165.335938 213.121094 164.695312 212.246094 164.101562 211.34375 C 163.503906 210.4375 162.953125 209.503906 162.449219 208.542969 C 161.945312 207.585938 161.488281 206.605469 161.082031 205.597656 C 160.671875 204.59375 160.316406 203.574219 160.007812 202.535156 C 159.699219 201.496094 159.445312 200.441406 159.242188 199.378906 C 159.035156 198.3125 158.882812 197.242188 158.785156 196.164062 C 158.6875 195.082031 158.640625 194 158.648438 192.917969 C 158.65625 191.832031 158.714844 190.753906 158.828125 189.675781 C 158.945312 188.597656 159.109375 187.527344 159.328125 186.464844 C 159.546875 185.402344 159.816406 184.355469 160.140625 183.320312 C 160.460938 182.285156 160.832031 181.269531 161.253906 180.269531 C 161.675781 179.269531 162.144531 178.296875 162.664062 177.34375 C 163.179688 176.390625 163.742188 175.464844 164.351562 174.570312 C 164.960938 173.671875 165.609375 172.804688 166.304688 171.972656 C 166.996094 171.140625 167.730469 170.34375 168.5 169.582031 C 169.273438 168.820312 170.078125 168.097656 170.921875 167.417969 C 171.765625 166.734375 172.636719 166.097656 173.542969 165.5 C 174.449219 164.902344 175.382812 164.355469 176.339844 163.847656 C 177.300781 163.34375 178.28125 162.890625 179.285156 162.480469 C 180.289062 162.074219 181.3125 161.714844 182.351562 161.40625 C 183.390625 161.101562 184.441406 160.84375 185.507812 160.640625 C 186.570312 160.433594 187.644531 160.285156 188.722656 160.183594 C 189.800781 160.085938 190.882812 160.039062 191.96875 160.046875 C 193.050781 160.054688 194.132812 160.117188 195.210938 160.230469 C 196.289062 160.34375 197.359375 160.507812 198.421875 160.726562 C 199.480469 160.945312 200.53125 161.214844 201.566406 161.539062 C 202.601562 161.859375 203.617188 162.230469 204.617188 162.652344 C 205.613281 163.074219 206.589844 163.542969 207.542969 164.0625 C 208.496094 164.578125 209.417969 165.140625 210.316406 165.75 C 211.214844 166.359375 212.078125 167.007812 212.914062 167.703125 C 213.746094 168.394531 214.542969 169.128906 215.304688 169.898438 C 216.066406 170.671875 216.785156 171.480469 217.46875 172.320312 C 218.152344 173.164062 218.789062 174.039062 219.386719 174.941406 C 219.980469 175.847656 220.53125 176.78125 221.035156 177.738281 C 221.539062 178.699219 221.996094 179.679688 222.40625 180.6875 C 222.8125 181.691406 223.171875 182.710938 223.476562 183.75 C 223.785156 184.789062 224.042969 185.84375 224.246094 186.90625 C 224.449219 187.972656 224.601562 189.042969 224.699219 190.121094 C 224.800781 191.203125 224.84375 192.285156 224.839844 193.367188 C 224.832031 194.453125 224.769531 195.53125 224.65625 196.609375 Z M 224.65625 196.609375 " fill-opacity="1" fill-rule="nonzero"/></g></g></g><g clip-path="url(#399a2f05bf)"><g clip-path="url(#96d916a5d8)"><g clip-path="url(#d2bd951b83)"><path fill="#2151a3" d="M 188.226562 226.511719 C 169.828125 224.570312 156.4375 208.023438 158.375 189.625 C 160.3125 171.230469 176.859375 157.835938 195.257812 159.773438 C 213.65625 161.714844 227.050781 178.261719 225.109375 196.660156 C 223.171875 215.0625 206.625 228.449219 188.226562 226.511719 Z M 195.164062 160.683594 C 177.265625 158.796875 161.171875 171.824219 159.285156 189.722656 C 157.398438 207.621094 170.425781 223.714844 188.324219 225.601562 C 206.222656 227.488281 222.316406 214.460938 224.203125 196.5625 C 226.085938 178.664062 213.0625 162.570312 195.164062 160.683594 Z M 195.164062 160.683594 " fill-opacity="1" fill-rule="nonzero"/></g></g></g><g clip-path="url(#15c0980f47)"><g clip-path="url(#618e8149c1)"><g clip-path="url(#78ec5c9511)"><path fill="#fe8be8" d="M 196.898438 192.25 C 197.097656 193.886719 195.042969 195.660156 193.039062 195.554688 C 191.15625 195.457031 189.308594 193.699219 189.582031 192.09375 C 189.835938 190.625 191.761719 189.816406 193.21875 189.824219 C 194.777344 189.828125 196.71875 190.78125 196.898438 192.25 Z M 196.898438 192.25 " fill-opacity="1" fill-rule="nonzero"/></g></g></g><g clip-path="url(#e6fe83b326)"><g clip-path="url(#1596a85f0b)"><g clip-path="url(#fe3ef41542)"><path fill="#2151a3" d="M 192.820312 195.992188 C 191.699219 195.871094 190.574219 195.25 189.839844 194.328125 C 189.253906 193.597656 189.007812 192.769531 189.136719 192.007812 C 189.457031 190.167969 191.71875 189.351562 193.226562 189.359375 C 195.050781 189.371094 197.148438 190.511719 197.355469 192.195312 C 197.449219 192.988281 197.132812 193.835938 196.449219 194.5625 C 195.554688 195.515625 194.242188 196.070312 193.019531 196.007812 C 192.949219 196.003906 192.886719 195.996094 192.820312 195.992188 Z M 193.582031 190.296875 C 193.460938 190.285156 193.335938 190.277344 193.21875 190.277344 C 192.023438 190.273438 190.25 190.921875 190.035156 192.167969 C 189.949219 192.667969 190.132812 193.238281 190.550781 193.761719 C 191.160156 194.523438 192.140625 195.046875 193.0625 195.09375 C 194.011719 195.140625 195.074219 194.6875 195.777344 193.941406 C 196.265625 193.417969 196.507812 192.820312 196.445312 192.304688 C 196.3125 191.253906 194.902344 190.4375 193.582031 190.296875 Z M 193.582031 190.296875 " fill-opacity="1" fill-rule="nonzero"/></g></g></g><g clip-path="url(#24021a8fc3)"><g clip-path="url(#64c3c505a5)"><g clip-path="url(#f68af95ea0)"><path fill="#ffffff" d="M 191.191406 185.507812 C 190.652344 190.625 186.925781 194.671875 182.082031 196.03125 C 180.503906 196.476562 178.792969 196.636719 177.042969 196.453125 C 169.941406 195.703125 164.773438 189.589844 165.488281 182.800781 C 166.203125 176.003906 172.535156 171.109375 179.636719 171.859375 C 180.660156 171.964844 181.644531 172.191406 182.574219 172.507812 C 188.105469 174.382812 191.804688 179.695312 191.191406 185.507812 Z M 191.191406 185.507812 " fill-opacity="1" fill-rule="nonzero"/></g></g></g><g clip-path="url(#7b2cc18305)"><g clip-path="url(#f29c14dd3d)"><g clip-path="url(#ac14572a30)"><path fill="#2151a3" d="M 176.996094 196.910156 C 169.660156 196.136719 164.292969 189.789062 165.03125 182.757812 C 165.773438 175.726562 172.34375 170.636719 179.683594 171.40625 C 180.722656 171.519531 181.746094 171.746094 182.722656 172.082031 C 188.605469 174.078125 192.273438 179.621094 191.644531 185.566406 C 191.101562 190.738281 187.394531 195.023438 182.203125 196.480469 C 180.515625 196.945312 178.765625 197.097656 176.996094 196.910156 Z M 179.585938 172.3125 C 172.75 171.59375 166.628906 176.320312 165.941406 182.847656 C 165.253906 189.378906 170.253906 195.277344 177.09375 195.996094 C 178.742188 196.171875 180.378906 196.035156 181.957031 195.589844 C 186.785156 194.234375 190.230469 190.257812 190.738281 185.460938 C 191.316406 179.941406 187.902344 174.792969 182.425781 172.9375 C 181.515625 172.625 180.558594 172.414062 179.585938 172.3125 Z M 179.585938 172.3125 " fill-opacity="1" fill-rule="nonzero"/></g></g></g><g clip-path="url(#8cbb553a2d)"><g clip-path="url(#f5f20fbf65)"><g clip-path="url(#23d40566f0)"><path fill="#2151a3" d="M 191.191406 185.507812 C 190.652344 190.625 186.925781 194.671875 182.082031 196.03125 C 177.308594 193.578125 174.285156 188.503906 174.867188 183.003906 C 175.367188 178.261719 178.421875 174.386719 182.574219 172.507812 C 188.105469 174.382812 191.804688 179.695312 191.191406 185.507812 Z M 191.191406 185.507812 " fill-opacity="1" fill-rule="nonzero"/></g></g></g><g clip-path="url(#b0f6b3bcdc)"><g clip-path="url(#f1231df8d6)"><g clip-path="url(#56bca2824d)"><path fill="#ffffff" d="M 183.453125 180.257812 L 185.0625 179.324219 L 184.667969 181.144531 L 186.28125 182.070312 L 184.511719 182.640625 L 184.519531 184.503906 L 183.136719 183.25 L 181.527344 184.1875 L 181.921875 182.367188 L 180.304688 181.4375 L 182.078125 180.871094 L 182.070312 179.007812 Z M 183.453125 180.257812 " fill-opacity="1" fill-rule="nonzero"/></g></g></g><g clip-path="url(#c56c4e231f)"><g clip-path="url(#98c18a3086)"><g clip-path="url(#f77f59435a)"><path fill="#2151a3" d="M 169 175.453125 C 168.988281 175.453125 168.96875 175.449219 168.957031 175.445312 C 167.4375 175.125 166.03125 174.511719 164.773438 173.621094 C 162.820312 172.242188 161.714844 170.523438 161.128906 169.324219 C 161.019531 169.097656 161.113281 168.820312 161.339844 168.710938 C 161.570312 168.601562 161.84375 168.695312 161.953125 168.925781 C 162.492188 170.023438 163.507812 171.605469 165.300781 172.871094 C 166.457031 173.6875 167.753906 174.25 169.148438 174.546875 C 169.394531 174.597656 169.554688 174.839844 169.5 175.089844 C 169.449219 175.320312 169.234375 175.476562 169 175.453125 Z M 169 175.453125 " fill-opacity="1" fill-rule="nonzero"/></g></g></g><g clip-path="url(#b5dfad82c5)"><g clip-path="url(#aa9d1129bb)"><g clip-path="url(#c7571e28fd)"><path fill="#2151a3" d="M 166.746094 178.957031 C 166.734375 178.957031 166.714844 178.953125 166.703125 178.949219 C 165.183594 178.628906 163.777344 178.015625 162.519531 177.125 C 160.570312 175.746094 159.460938 174.027344 158.875 172.828125 C 158.765625 172.601562 158.859375 172.324219 159.089844 172.214844 C 159.316406 172.105469 159.589844 172.199219 159.699219 172.429688 C 160.238281 173.527344 161.257812 175.109375 163.046875 176.375 C 164.203125 177.191406 165.5 177.753906 166.894531 178.050781 C 167.140625 178.101562 167.300781 178.34375 167.246094 178.59375 C 167.195312 178.824219 166.976562 178.980469 166.746094 178.957031 Z M 166.746094 178.957031 " fill-opacity="1" fill-rule="nonzero"/></g></g></g><g clip-path="url(#ba34035528)"><g clip-path="url(#67923b85b6)"><g clip-path="url(#58000dc381)"><path fill="#2151a3" d="M 165.628906 182.292969 C 165.617188 182.289062 165.597656 182.289062 165.585938 182.28125 C 164.0625 181.960938 162.65625 181.347656 161.402344 180.457031 C 159.449219 179.082031 158.34375 177.359375 157.757812 176.164062 C 157.648438 175.933594 157.742188 175.660156 157.96875 175.550781 C 158.195312 175.441406 158.472656 175.535156 158.582031 175.761719 C 159.117188 176.863281 160.136719 178.445312 161.929688 179.710938 C 163.085938 180.527344 164.382812 181.089844 165.773438 181.382812 C 166.023438 181.4375 166.179688 181.679688 166.128906 181.925781 C 166.074219 182.164062 165.859375 182.316406 165.628906 182.292969 Z M 165.628906 182.292969 " fill-opacity="1" fill-rule="nonzero"/></g></g></g><g clip-path="url(#2388e0a98d)"><g clip-path="url(#3a9a778519)"><g clip-path="url(#b7db7c0c5d)"><path fill="#ffffff" d="M 220.042969 184.628906 C 219.503906 189.742188 215.777344 193.789062 210.933594 195.152344 C 209.355469 195.597656 207.648438 195.757812 205.898438 195.570312 C 198.796875 194.824219 193.625 188.707031 194.339844 181.921875 C 195.058594 175.125 201.386719 170.230469 208.488281 170.976562 C 209.511719 171.085938 210.5 171.308594 211.425781 171.628906 C 216.960938 173.5 220.65625 178.8125 220.042969 184.628906 Z M 220.042969 184.628906 " fill-opacity="1" fill-rule="nonzero"/></g></g></g><g clip-path="url(#7a13c5f52f)"><g clip-path="url(#a989a69f24)"><g clip-path="url(#a47f3946a5)"><path fill="#2151a3" d="M 205.847656 196.03125 C 198.511719 195.257812 193.144531 188.910156 193.886719 181.878906 C 194.628906 174.84375 201.199219 169.753906 208.535156 170.527344 C 209.578125 170.636719 210.601562 170.863281 211.578125 171.203125 C 217.457031 173.195312 221.125 178.738281 220.5 184.683594 C 219.953125 189.859375 216.246094 194.144531 211.054688 195.601562 C 209.371094 196.070312 207.617188 196.21875 205.847656 196.03125 Z M 208.441406 171.433594 C 201.601562 170.710938 195.484375 175.441406 194.796875 181.96875 C 194.109375 188.496094 199.109375 194.398438 205.945312 195.117188 C 207.59375 195.289062 209.230469 195.15625 210.808594 194.710938 C 215.640625 193.351562 219.085938 189.375 219.589844 184.582031 C 220.171875 179.0625 216.757812 173.914062 211.28125 172.058594 C 210.367188 171.746094 209.414062 171.535156 208.441406 171.433594 Z M 208.441406 171.433594 " fill-opacity="1" fill-rule="nonzero"/></g></g></g><g clip-path="url(#fe87989e3c)"><g clip-path="url(#decbf27bd5)"><g clip-path="url(#6fe3564696)"><path fill="#2151a3" d="M 220.042969 184.628906 C 219.503906 189.742188 215.777344 193.789062 210.933594 195.152344 C 206.164062 192.699219 203.140625 187.625 203.71875 182.121094 C 204.21875 177.382812 207.273438 173.507812 211.425781 171.628906 C 216.960938 173.5 220.65625 178.8125 220.042969 184.628906 Z M 220.042969 184.628906 " fill-opacity="1" fill-rule="nonzero"/></g></g></g><g clip-path="url(#da8cb825d2)"><g clip-path="url(#858d12c2d7)"><g clip-path="url(#1e9342dd5f)"><path fill="#ffffff" d="M 212.300781 179.382812 L 213.910156 178.445312 L 213.519531 180.261719 L 215.136719 181.1875 L 213.359375 181.757812 L 213.367188 183.621094 L 211.984375 182.367188 L 210.378906 183.308594 L 210.773438 181.488281 L 209.15625 180.558594 L 210.929688 179.992188 L 210.925781 178.128906 Z M 212.300781 179.382812 " fill-opacity="1" fill-rule="nonzero"/></g></g></g><g clip-path="url(#c8ae8a17a7)"><g clip-path="url(#a91bfbce24)"><g clip-path="url(#e8bf342713)"><path fill="#2151a3" d="M 215.652344 174.34375 C 215.472656 174.324219 215.3125 174.195312 215.261719 174.011719 C 215.195312 173.769531 215.335938 173.519531 215.578125 173.449219 C 216.953125 173.0625 218.210938 172.425781 219.316406 171.535156 C 221.023438 170.15625 221.941406 168.515625 222.410156 167.382812 C 222.507812 167.148438 222.769531 167.039062 223.003906 167.132812 C 223.238281 167.230469 223.347656 167.496094 223.253906 167.730469 C 222.746094 168.964844 221.75 170.746094 219.886719 172.242188 C 218.6875 173.210938 217.324219 173.90625 215.824219 174.324219 C 215.765625 174.339844 215.707031 174.347656 215.652344 174.34375 Z M 215.652344 174.34375 " fill-opacity="1" fill-rule="nonzero"/></g></g></g><g clip-path="url(#7047a2a553)"><g clip-path="url(#9dc24f4ab0)"><g clip-path="url(#9e1b7ac06d)"><path fill="#2151a3" d="M 218.121094 177.695312 C 217.941406 177.675781 217.78125 177.550781 217.730469 177.367188 C 217.664062 177.125 217.804688 176.871094 218.046875 176.800781 C 219.421875 176.417969 220.679688 175.777344 221.777344 174.886719 C 223.488281 173.507812 224.40625 171.867188 224.871094 170.738281 C 224.972656 170.503906 225.234375 170.394531 225.46875 170.488281 C 225.703125 170.585938 225.8125 170.847656 225.71875 171.082031 C 225.210938 172.316406 224.214844 174.101562 222.351562 175.597656 C 221.152344 176.5625 219.785156 177.261719 218.289062 177.675781 C 218.238281 177.699219 218.183594 177.703125 218.121094 177.695312 Z M 218.121094 177.695312 " fill-opacity="1" fill-rule="nonzero"/></g></g></g><g clip-path="url(#01b701e8d4)"><g clip-path="url(#68a88ae1d2)"><g clip-path="url(#e15962768c)"><path fill="#2151a3" d="M 219.449219 180.957031 C 219.265625 180.9375 219.109375 180.8125 219.054688 180.625 C 218.988281 180.386719 219.128906 180.132812 219.371094 180.0625 C 220.75 179.679688 222.003906 179.035156 223.105469 178.148438 C 224.8125 176.773438 225.730469 175.132812 226.199219 173.996094 C 226.296875 173.765625 226.558594 173.652344 226.792969 173.746094 C 227.027344 173.84375 227.136719 174.109375 227.042969 174.34375 C 226.53125 175.578125 225.535156 177.359375 223.675781 178.855469 C 222.476562 179.824219 221.113281 180.519531 219.617188 180.9375 C 219.5625 180.957031 219.503906 180.964844 219.449219 180.957031 Z M 219.449219 180.957031 " fill-opacity="1" fill-rule="nonzero"/></g></g></g><g clip-path="url(#5432f2c85e)"><g clip-path="url(#687e7d3885)"><g clip-path="url(#7f32549d22)"><path fill="#2151a3" d="M 192.675781 203.5 C 189.378906 203.152344 186.402344 200.980469 184.984375 197.84375 C 184.878906 197.613281 184.980469 197.34375 185.210938 197.238281 C 185.445312 197.136719 185.714844 197.238281 185.816406 197.46875 C 187.179688 200.476562 190.105469 202.503906 193.285156 202.632812 C 196.964844 202.78125 200.4375 200.371094 201.730469 196.773438 C 201.816406 196.535156 202.082031 196.414062 202.316406 196.5 C 202.554688 196.585938 202.675781 196.84375 202.589844 197.085938 C 201.160156 201.050781 197.316406 203.707031 193.25 203.546875 C 193.058594 203.53125 192.867188 203.519531 192.675781 203.5 Z M 192.675781 203.5 " fill-opacity="1" fill-rule="nonzero"/></g></g></g><g clip-path="url(#f7b99f4eb1)"><g clip-path="url(#f360f9ad73)"><g clip-path="url(#a545729494)"><path fill="#2151a3" d="M 174.113281 198.832031 C 174.136719 199 174.113281 199.148438 174.046875 199.277344 C 173.976562 199.40625 173.878906 199.484375 173.757812 199.5 C 173.632812 199.519531 173.519531 199.476562 173.414062 199.375 C 173.308594 199.269531 173.242188 199.132812 173.21875 198.96875 C 173.191406 198.800781 173.214844 198.652344 173.285156 198.523438 C 173.351562 198.394531 173.449219 198.316406 173.574219 198.300781 C 173.695312 198.28125 173.8125 198.324219 173.917969 198.425781 C 174.023438 198.53125 174.085938 198.667969 174.113281 198.832031 Z M 174.113281 198.832031 " fill-opacity="1" fill-rule="nonzero"/></g></g></g><g clip-path="url(#abd5e79398)"><g clip-path="url(#d0c83008be)"><g clip-path="url(#4d47cc100f)"><path fill="#2151a3" d="M 176.164062 200.445312 C 176.1875 200.613281 176.164062 200.761719 176.097656 200.890625 C 176.027344 201.023438 175.929688 201.097656 175.804688 201.117188 C 175.683594 201.132812 175.570312 201.089844 175.464844 200.988281 C 175.359375 200.882812 175.292969 200.75 175.269531 200.582031 C 175.242188 200.417969 175.265625 200.269531 175.335938 200.136719 C 175.402344 200.007812 175.5 199.933594 175.625 199.914062 C 175.746094 199.894531 175.863281 199.9375 175.96875 200.042969 C 176.070312 200.144531 176.136719 200.28125 176.164062 200.445312 Z M 176.164062 200.445312 " fill-opacity="1" fill-rule="nonzero"/></g></g></g><g clip-path="url(#d1d441fa4c)"><g clip-path="url(#cf37bff2a8)"><g clip-path="url(#0adf006f4e)"><path fill="#2151a3" d="M 177.3125 198.347656 C 177.335938 198.511719 177.316406 198.660156 177.246094 198.792969 C 177.175781 198.921875 177.078125 198.996094 176.957031 199.015625 C 176.832031 199.035156 176.71875 198.992188 176.613281 198.886719 C 176.507812 198.785156 176.441406 198.648438 176.417969 198.484375 C 176.390625 198.316406 176.414062 198.167969 176.484375 198.039062 C 176.554688 197.90625 176.648438 197.832031 176.773438 197.8125 C 176.898438 197.796875 177.011719 197.839844 177.117188 197.941406 C 177.222656 198.046875 177.285156 198.179688 177.3125 198.347656 Z M 177.3125 198.347656 " fill-opacity="1" fill-rule="nonzero"/></g></g></g><g clip-path="url(#bdbadfd6d6)"><g clip-path="url(#52b072928c)"><g clip-path="url(#72a550145d)"><path fill="#2151a3" d="M 210.203125 197.460938 C 210.238281 197.625 210.226562 197.773438 210.164062 197.90625 C 210.101562 198.042969 210.007812 198.121094 209.886719 198.148438 C 209.765625 198.175781 209.648438 198.136719 209.535156 198.039062 C 209.425781 197.941406 209.351562 197.8125 209.316406 197.644531 C 209.285156 197.480469 209.296875 197.332031 209.359375 197.199219 C 209.421875 197.0625 209.511719 196.984375 209.636719 196.957031 C 209.757812 196.933594 209.875 196.96875 209.984375 197.066406 C 210.097656 197.164062 210.167969 197.296875 210.203125 197.460938 Z M 210.203125 197.460938 " fill-opacity="1" fill-rule="nonzero"/></g></g></g><g clip-path="url(#c64ad73d8c)"><g clip-path="url(#ba0daccf7d)"><g clip-path="url(#c7cec875e0)"><path fill="#2151a3" d="M 212.347656 198.953125 C 212.382812 199.117188 212.371094 199.269531 212.308594 199.402344 C 212.246094 199.535156 212.152344 199.617188 212.03125 199.640625 C 211.910156 199.667969 211.792969 199.632812 211.683594 199.535156 C 211.570312 199.4375 211.496094 199.304688 211.464844 199.140625 C 211.429688 198.976562 211.441406 198.828125 211.503906 198.691406 C 211.566406 198.558594 211.660156 198.476562 211.78125 198.453125 C 211.902344 198.425781 212.019531 198.460938 212.132812 198.5625 C 212.242188 198.660156 212.316406 198.789062 212.347656 198.953125 Z M 212.347656 198.953125 " fill-opacity="1" fill-rule="nonzero"/></g></g></g><g clip-path="url(#7db5478d2e)"><g clip-path="url(#d538392d21)"><g clip-path="url(#4cbc38c456)"><path fill="#2151a3" d="M 213.375 196.792969 C 213.410156 196.957031 213.398438 197.105469 213.335938 197.238281 C 213.273438 197.375 213.179688 197.453125 213.058594 197.480469 C 212.9375 197.503906 212.820312 197.46875 212.710938 197.371094 C 212.597656 197.273438 212.523438 197.140625 212.492188 196.976562 C 212.457031 196.8125 212.46875 196.664062 212.53125 196.53125 C 212.59375 196.394531 212.6875 196.316406 212.808594 196.289062 C 212.929688 196.265625 213.046875 196.300781 213.160156 196.398438 C 213.269531 196.496094 213.34375 196.628906 213.375 196.792969 Z M 213.375 196.792969 " fill-opacity="1" fill-rule="nonzero"/></g></g></g><g clip-path="url(#8ca2069822)"><g clip-path="url(#e250477af3)"><g clip-path="url(#520d229536)"><path fill="#f7bf3e" d="M 273.257812 221.136719 L 282.730469 220.429688 L 276.863281 227.898438 L 282.214844 235.746094 L 272.808594 234.402344 L 268.683594 242.957031 L 265.148438 234.140625 L 255.679688 234.847656 L 261.546875 227.382812 L 256.195312 219.53125 L 265.601562 220.878906 L 269.726562 212.320312 Z M 273.257812 221.136719 " fill-opacity="1" fill-rule="nonzero"/></g></g></g><g clip-path="url(#8e7d61de61)"><g clip-path="url(#8a58a8055a)"><g clip-path="url(#997f5eb59d)"><path fill="#2151a3" d="M 268.648438 244.089844 L 264.851562 234.621094 L 254.679688 235.378906 L 260.980469 227.355469 L 255.234375 218.925781 L 265.332031 220.371094 L 269.761719 211.179688 L 273.558594 220.648438 L 283.726562 219.890625 L 277.425781 227.914062 L 283.171875 236.34375 L 273.074219 234.898438 Z M 265.449219 233.664062 L 268.726562 241.828125 L 272.542969 233.90625 L 281.25 235.148438 L 276.300781 227.878906 L 281.730469 220.964844 L 272.960938 221.617188 L 269.683594 213.453125 L 265.867188 221.375 L 257.15625 220.128906 L 262.109375 227.398438 L 256.679688 234.316406 Z M 265.449219 233.664062 " fill-opacity="1" fill-rule="nonzero"/></g></g></g><g clip-path="url(#2bddfe83d3)"><g clip-path="url(#1acae8e549)"><g clip-path="url(#d991f5cb88)"><path fill="#f7bf3e" d="M 148.894531 113.933594 L 157.96875 116.730469 L 149.78125 121.542969 L 151.902344 130.804688 L 143.636719 126.121094 L 136.675781 132.585938 L 136.597656 123.085938 L 127.519531 120.292969 L 135.707031 115.476562 L 133.589844 106.21875 L 141.855469 110.898438 L 148.8125 104.433594 Z M 148.894531 113.933594 " fill-opacity="1" fill-rule="nonzero"/></g></g></g><g clip-path="url(#1fd08d6aa6)"><g clip-path="url(#53a0def92b)"><g clip-path="url(#d741e22867)"><path fill="#2151a3" d="M 136.226562 133.625 L 136.144531 123.425781 L 126.394531 120.425781 L 135.183594 115.253906 L 132.914062 105.308594 L 141.789062 110.335938 L 149.261719 103.390625 L 149.347656 113.589844 L 159.097656 116.589844 L 150.304688 121.765625 L 152.582031 131.707031 L 143.707031 126.679688 Z M 128.644531 120.164062 L 137.050781 122.75 L 137.121094 131.542969 L 143.566406 125.558594 L 151.21875 129.894531 L 149.257812 121.324219 L 156.839844 116.863281 L 148.433594 114.277344 L 148.363281 105.480469 L 141.917969 111.464844 L 134.265625 107.125 L 136.226562 115.699219 Z M 128.644531 120.164062 " fill-opacity="1" fill-rule="nonzero"/></g></g></g><g clip-path="url(#3b86a8c755)"><g clip-path="url(#40922ccb65)"><g clip-path="url(#e7b3f1551e)"><path fill="#f7bf3e" d="M 283.945312 180.210938 C 283.914062 180.527344 283.847656 180.835938 283.753906 181.140625 C 283.660156 181.445312 283.539062 181.734375 283.386719 182.015625 C 283.234375 182.296875 283.054688 182.558594 282.851562 182.800781 C 282.648438 183.046875 282.421875 183.269531 282.175781 183.46875 C 281.929688 183.667969 281.664062 183.84375 281.382812 183.992188 C 281.101562 184.140625 280.808594 184.257812 280.503906 184.347656 C 280.199219 184.4375 279.886719 184.5 279.570312 184.527344 C 279.253906 184.558594 278.9375 184.554688 278.621094 184.519531 C 278.304688 184.488281 277.992188 184.425781 277.691406 184.328125 C 277.386719 184.234375 277.09375 184.113281 276.816406 183.960938 C 276.535156 183.808594 276.273438 183.628906 276.027344 183.425781 C 275.785156 183.222656 275.5625 183 275.359375 182.75 C 275.160156 182.503906 274.988281 182.238281 274.839844 181.957031 C 274.691406 181.675781 274.570312 181.382812 274.480469 181.078125 C 274.390625 180.773438 274.332031 180.460938 274.300781 180.144531 C 274.273438 179.828125 274.277344 179.511719 274.308594 179.195312 C 274.34375 178.878906 274.40625 178.566406 274.5 178.265625 C 274.59375 177.960938 274.71875 177.667969 274.871094 177.390625 C 275.023438 177.109375 275.199219 176.847656 275.402344 176.601562 C 275.605469 176.359375 275.832031 176.136719 276.078125 175.9375 C 276.328125 175.734375 276.589844 175.5625 276.871094 175.414062 C 277.15625 175.265625 277.449219 175.148438 277.753906 175.054688 C 278.058594 174.964844 278.367188 174.90625 278.6875 174.878906 C 279.003906 174.847656 279.320312 174.851562 279.636719 174.882812 C 279.953125 174.917969 280.261719 174.980469 280.566406 175.074219 C 280.871094 175.167969 281.160156 175.292969 281.441406 175.445312 C 281.71875 175.597656 281.984375 175.773438 282.226562 175.976562 C 282.472656 176.179688 282.695312 176.40625 282.894531 176.652344 C 283.09375 176.902344 283.269531 177.164062 283.417969 177.449219 C 283.566406 177.730469 283.683594 178.023438 283.773438 178.328125 C 283.863281 178.632812 283.925781 178.945312 283.953125 179.261719 C 283.980469 179.578125 283.980469 179.894531 283.945312 180.210938 Z M 283.945312 180.210938 " fill-opacity="1" fill-rule="nonzero"/></g></g></g><g clip-path="url(#77b058e0ef)"><g clip-path="url(#100f45a2ce)"><g clip-path="url(#b835e1a05e)"><path fill="#2151a3" d="M 278.570312 184.980469 C 275.664062 184.675781 273.546875 182.054688 273.855469 179.152344 C 274.160156 176.246094 276.777344 174.128906 279.683594 174.433594 C 282.585938 174.738281 284.707031 177.359375 284.402344 180.261719 C 284.09375 183.167969 281.480469 185.285156 278.570312 184.980469 Z M 279.585938 175.339844 C 277.183594 175.085938 275.015625 176.835938 274.761719 179.242188 C 274.511719 181.648438 276.261719 183.8125 278.667969 184.066406 C 281.078125 184.320312 283.238281 182.566406 283.492188 180.164062 C 283.746094 177.757812 281.996094 175.59375 279.585938 175.339844 Z M 279.585938 175.339844 " fill-opacity="1" fill-rule="nonzero"/></g></g></g><g clip-path="url(#daa13f1ff5)"><g clip-path="url(#1addf1e2a7)"><g clip-path="url(#43cd88f5ad)"><path fill="#f7bf3e" d="M 112.113281 163.921875 C 112.078125 164.238281 112.015625 164.546875 111.921875 164.851562 C 111.828125 165.15625 111.703125 165.445312 111.550781 165.726562 C 111.398438 166.007812 111.222656 166.269531 111.019531 166.511719 C 110.816406 166.757812 110.589844 166.980469 110.34375 167.179688 C 110.09375 167.378906 109.832031 167.554688 109.546875 167.703125 C 109.265625 167.851562 108.972656 167.96875 108.667969 168.058594 C 108.363281 168.148438 108.050781 168.210938 107.734375 168.238281 C 107.417969 168.265625 107.101562 168.265625 106.785156 168.230469 C 106.46875 168.199219 106.160156 168.136719 105.855469 168.039062 C 105.550781 167.945312 105.261719 167.824219 104.980469 167.671875 C 104.699219 167.519531 104.4375 167.339844 104.195312 167.136719 C 103.949219 166.933594 103.726562 166.707031 103.527344 166.460938 C 103.328125 166.214844 103.152344 165.949219 103.003906 165.667969 C 102.855469 165.386719 102.738281 165.09375 102.648438 164.789062 C 102.558594 164.484375 102.496094 164.171875 102.46875 163.855469 C 102.4375 163.539062 102.441406 163.222656 102.476562 162.90625 C 102.507812 162.589844 102.570312 162.277344 102.667969 161.976562 C 102.761719 161.671875 102.882812 161.378906 103.035156 161.101562 C 103.1875 160.820312 103.367188 160.558594 103.570312 160.3125 C 103.773438 160.070312 103.996094 159.847656 104.246094 159.648438 C 104.492188 159.445312 104.757812 159.273438 105.039062 159.125 C 105.320312 158.976562 105.613281 158.855469 105.917969 158.765625 C 106.222656 158.675781 106.535156 158.617188 106.851562 158.589844 C 107.167969 158.558594 107.484375 158.5625 107.800781 158.59375 C 108.117188 158.628906 108.429688 158.691406 108.730469 158.785156 C 109.035156 158.878906 109.328125 159.003906 109.605469 159.15625 C 109.886719 159.308594 110.148438 159.484375 110.394531 159.6875 C 110.636719 159.890625 110.859375 160.117188 111.058594 160.363281 C 111.261719 160.613281 111.433594 160.875 111.582031 161.15625 C 111.730469 161.441406 111.847656 161.734375 111.941406 162.039062 C 112.03125 162.34375 112.089844 162.652344 112.117188 162.972656 C 112.148438 163.289062 112.144531 163.605469 112.113281 163.921875 Z M 112.113281 163.921875 " fill-opacity="1" fill-rule="nonzero"/></g></g></g><g clip-path="url(#3616c3c383)"><g clip-path="url(#4a3ea833b3)"><g clip-path="url(#05a25e358b)"><path fill="#2151a3" d="M 106.738281 168.6875 C 103.828125 168.378906 101.714844 165.761719 102.019531 162.859375 C 102.328125 159.953125 104.945312 157.832031 107.847656 158.140625 C 110.753906 158.445312 112.875 161.0625 112.566406 163.96875 C 112.261719 166.875 109.644531 168.992188 106.738281 168.6875 Z M 107.753906 159.042969 C 105.34375 158.789062 103.183594 160.542969 102.929688 162.949219 C 102.675781 165.355469 104.429688 167.519531 106.835938 167.773438 C 109.238281 168.027344 111.40625 166.273438 111.660156 163.867188 C 111.910156 161.464844 110.160156 159.296875 107.753906 159.042969 Z M 107.753906 159.042969 " fill-opacity="1" fill-rule="nonzero"/></g></g></g><g clip-path="url(#18c86a54d8)"><g clip-path="url(#6ca633b724)"><g clip-path="url(#d3ac40e8f6)"><path fill="#f7bf3e" d="M 129.210938 246.949219 C 129.175781 247.265625 129.113281 247.574219 129.019531 247.878906 C 128.925781 248.179688 128.800781 248.472656 128.648438 248.753906 C 128.496094 249.03125 128.320312 249.292969 128.117188 249.539062 C 127.914062 249.785156 127.6875 250.007812 127.441406 250.207031 C 127.191406 250.40625 126.929688 250.582031 126.648438 250.726562 C 126.367188 250.875 126.070312 250.996094 125.765625 251.085938 C 125.460938 251.175781 125.152344 251.234375 124.835938 251.265625 C 124.515625 251.292969 124.199219 251.292969 123.882812 251.257812 C 123.566406 251.226562 123.257812 251.160156 122.953125 251.066406 C 122.648438 250.972656 122.359375 250.847656 122.078125 250.699219 C 121.800781 250.546875 121.535156 250.367188 121.292969 250.164062 C 121.046875 249.960938 120.824219 249.734375 120.625 249.488281 C 120.425781 249.242188 120.25 248.976562 120.101562 248.695312 C 119.953125 248.414062 119.835938 248.121094 119.746094 247.816406 C 119.65625 247.507812 119.59375 247.199219 119.566406 246.882812 C 119.539062 246.566406 119.539062 246.25 119.574219 245.933594 C 119.605469 245.617188 119.671875 245.304688 119.765625 245 C 119.859375 244.699219 119.980469 244.40625 120.132812 244.125 C 120.285156 243.847656 120.464844 243.585938 120.667969 243.339844 C 120.871094 243.097656 121.097656 242.875 121.34375 242.671875 C 121.589844 242.472656 121.855469 242.300781 122.136719 242.152344 C 122.417969 242.003906 122.710938 241.882812 123.015625 241.792969 C 123.320312 241.703125 123.632812 241.644531 123.949219 241.613281 C 124.265625 241.585938 124.582031 241.585938 124.898438 241.621094 C 125.214844 241.652344 125.527344 241.71875 125.828125 241.8125 C 126.132812 241.90625 126.425781 242.03125 126.703125 242.183594 C 126.984375 242.332031 127.246094 242.511719 127.492188 242.714844 C 127.734375 242.917969 127.957031 243.144531 128.160156 243.390625 C 128.359375 243.636719 128.53125 243.902344 128.679688 244.183594 C 128.828125 244.464844 128.949219 244.757812 129.039062 245.066406 C 129.128906 245.371094 129.1875 245.679688 129.21875 245.996094 C 129.246094 246.3125 129.242188 246.632812 129.210938 246.949219 Z M 129.210938 246.949219 " fill-opacity="1" fill-rule="nonzero"/><path fill="#2151a3" d="M 123.835938 251.714844 C 120.925781 251.40625 118.8125 248.789062 119.117188 245.882812 C 119.425781 242.980469 122.042969 240.859375 124.949219 241.167969 C 127.851562 241.472656 129.972656 244.089844 129.664062 246.996094 C 129.359375 249.898438 126.746094 252.019531 123.835938 251.714844 Z M 124.851562 242.074219 C 122.441406 241.820312 120.28125 243.574219 120.027344 245.980469 C 119.773438 248.386719 121.527344 250.550781 123.933594 250.804688 C 126.335938 251.058594 128.503906 249.304688 128.757812 246.898438 C 129.007812 244.496094 127.261719 242.328125 124.851562 242.074219 Z M 124.851562 242.074219 " fill-opacity="1" fill-rule="nonzero"/></g></g></g></svg>